/* XPM */
static char *aeb9ee5013664044a94dec524fcd80b26RqbhgEzcitpCVFG[] = {
/* columns rows colors chars-per-pixel */
"85 86 8 1 ",
"  c gray17",
". c #484748",
"X c #B5741F",
"o c #DBA62E",
"O c #FDED39",
"+ c #5B88F6",
"@ c #FEF68A",
"# c #CECECE",
/* pixels */
"+++++.....                                                                ......+++++",
"+++++.....                                                                ......+++++",
"+++++.....                                                                ......+++++",
"+++++.....                                                                ......+++++",
"+++++.....                                                                ......+++++",
".....     @@@@@@ooooooooooXXXXXXXXXXXXXXXXXXXXXXXXXXXXXXXXXXXXXXXXXXXXXXXX      .....",
".....     @@@@@@ooooooooooXXXXXXXXXXXXXXXXXXXXXXXXXXXXXXXXXXXXXXXXXXXXXXXX      .....",
".....     @@@@@@ooooooooooXXXXXXXXXXXXXXXXXXXXXXXXXXXXXXXXXXXXXXXXXXXXXXXX      .....",
".....     @@@@@@ooooooooooXXXXXXXXXXXXXXXXXXXXXXXXXXXXXXXXXXXXXXXXXXXXXXXX      .....",
".....     @@@@@@ooooooooooXXXXXXXXXXXXXXXXXXXXXXXXXXXXXXXXXXXXXXXXXXXXXXXX      .....",
"     @@@@@ooooooOOOOOOOOOOOOOOOOOOOOOOOOOOOOOOOOOOOOOOOOOOOOOOOOOOOOOXXXXXXXXXXX     ",
"     @@@@@ooooooOOOOOOOOOOOOOOOOOOOOOOOOOOOOOOOOOOOOOOOOOOOOOOOOOOOOOXXXXXXXXXXX     ",
"     @@@@@ooooooOOOOOOOOOOOOOOOOOOOOOOOOOOOOOOOOOOOOOOOOOOOOOOOOOOOOOXXXXXXXXXXX     ",
"     @@@@@ooooooOOOOOOOOOOOOOOOOOOOOOOOOOOOOOOOOOOOOOOOOOOOOOOOOOOOOOXXXXXXXXXXX     ",
"     @@@@@ooooooOOOOOOOOOOOOOOOOOOOOOOOOOOOOOOOOOOOOOOOOOOOOOOOOOOOOOXXXXXXXXXXX     ",
"     oooooOOOOOOOOOOO                                     OOOOOOOOOOOOOOOOXXXXXX     ",
"     oooooOOOOOOOOOOO                                     OOOOOOOOOOOOOOOOXXXXXX     ",
"     oooooOOOOOOOOOOO                                     OOOOOOOOOOOOOOOOXXXXXX     ",
"     oooooOOOOOOOOOOO                                     OOOOOOOOOOOOOOOOXXXXXX     ",
"     oooooOOOOOOOOOOO                                     OOOOOOOOOOOOOOOOXXXXXX     ",
"     oooooOOOOOOOOOOO                                     OOOOOOOOOOOOOOOOXXXXXX     ",
"     oooooOOOOOO     #####################################      OOOOOOOOOOXXXXXX     ",
"     oooooOOOOOO     #####################################      OOOOOOOOOOXXXXXX     ",
"     oooooOOOOOO     #####################################      OOOOOOOOOOXXXXXX     ",
"     oooooOOOOOO     #####################################      OOOOOOOOOOXXXXXX     ",
"     oooooOOOOOO     #####################################      OOOOOOOOOOXXXXXX     ",
"     XXXXX      ################################################     OOOOOXXXXXX     ",
"     XXXXX      ################################################     OOOOOXXXXXX     ",
"     XXXXX      ################################################     OOOOOXXXXXX     ",
"     XXXXX      ################################################     OOOOOXXXXXX     ",
"     XXXXX      ################################################     OOOOOXXXXXX     ",
"     XXXXX      ################################################     OOOOOXXXXXX     ",
"     ooooo      ################                ################     OOOOOXXXXXX     ",
"     ooooo      ################                ################     OOOOOXXXXXX     ",
"     ooooo      ################                ################     OOOOOXXXXXX     ",
"     ooooo      ################                ################     OOOOOXXXXXX     ",
"     ooooo      ################                ################     OOOOOXXXXXX     ",
"     XXXXXOOOOOO                                ################     OOOOOXXXXXX     ",
"     XXXXXOOOOOO                                ################     OOOOOXXXXXX     ",
"     XXXXXOOOOOO                                ################     OOOOOXXXXXX     ",
"     XXXXXOOOOOO                                ################     OOOOOXXXXXX     ",
"     XXXXXOOOOOO                                ################     OOOOOXXXXXX     ",
"     XXXXXOOOOOOOOOOOOOOOO      ##########################      OOOOOOOOOOXXXXXX     ",
"     XXXXXOOOOOOOOOOOOOOOO      ##########################      OOOOOOOOOOXXXXXX     ",
"     XXXXXOOOOOOOOOOOOOOOO      ##########################      OOOOOOOOOOXXXXXX     ",
"     XXXXXOOOOOOOOOOOOOOOO      ##########################      OOOOOOOOOOXXXXXX     ",
"     XXXXXOOOOOOOOOOOOOOOO      ##########################      OOOOOOOOOOXXXXXX     ",
"     XXXXXOOOOOOOOOOOOOOOO      ##########################      OOOOOOOOOOXXXXXX     ",
"     XXXXXOOOOOOOOOOOOOOOO      ################          OOOOOOOOOOOOOOOOXXXXXX     ",
"     XXXXXOOOOOOOOOOOOOOOO      ################          OOOOOOOOOOOOOOOOXXXXXX     ",
"     XXXXXOOOOOOOOOOOOOOOO      ################          OOOOOOOOOOOOOOOOXXXXXX     ",
"     XXXXXOOOOOOOOOOOOOOOO      ################          OOOOOOOOOOOOOOOOXXXXXX     ",
"     XXXXXOOOOOOOOOOOOOOOO      ################          OOOOOOOOOOOOOOOOXXXXXX     ",
"     XXXXXOOOOOOOOOOOOOOOOOOOOOO                OOOOOOOOOOOOOOOOOOOOOOOOOOXXXXXX     ",
"     XXXXXOOOOOOOOOOOOOOOOOOOOOO                OOOOOOOOOOOOOOOOOOOOOOOOOOXXXXXX     ",
"     XXXXXOOOOOOOOOOOOOOOOOOOOOO                OOOOOOOOOOOOOOOOOOOOOOOOOOXXXXXX     ",
"     XXXXXOOOOOOOOOOOOOOOOOOOOOO                OOOOOOOOOOOOOOOOOOOOOOOOOOXXXXXX     ",
"     XXXXXOOOOOOOOOOOOOOOOOOOOOO                OOOOOOOOOOOOOOOOOOOOOOOOOOXXXXXX     ",
"     XXXXXOOOOOOOOOOOOOOOO      ################     OOOOOOOOOOOOOOOOOOOOOXXXXXX     ",
"     XXXXXOOOOOOOOOOOOOOOO      ################     OOOOOOOOOOOOOOOOOOOOOXXXXXX     ",
"     XXXXXOOOOOOOOOOOOOOOO      ################     OOOOOOOOOOOOOOOOOOOOOXXXXXX     ",
"     XXXXXOOOOOOOOOOOOOOOO      ################     OOOOOOOOOOOOOOOOOOOOOXXXXXX     ",
"     XXXXXOOOOOOOOOOOOOOOO      ################     OOOOOOOOOOOOOOOOOOOOOXXXXXX     ",
"     XXXXXOOOOOOOOOOOOOOOO      ################     OOOOOOOOOOOOOOOOOOOOOXXXXXX     ",
"     XXXXXOOOOOOOOOOOOOOOO      ################     OOOOOOOOOOOOOOOOOOOOOXXXXXX     ",
"     XXXXXOOOOOOOOOOOOOOOO      ################     OOOOOOOOOOOOOOOOOOOOOXXXXXX     ",
"     XXXXXOOOOOOOOOOOOOOOO      ################     OOOOOOOOOOOOOOOOOOOOOXXXXXX     ",
"     XXXXXOOOOOOOOOOOOOOOO      ################     OOOOOOOOOOOOOOOOOOOOOXXXXXX     ",
"     XXXXXOOOOOOOOOOOOOOOO      ################     OOOOOOOOOOOOOOOOOOOOOXXXXXX     ",
"     XXXXXXXXXXXOOOOOOOOOOOOOOOO                OOOOOOOOOOOOOOOOOOOOOXXXXXXXXXXX     ",
"     XXXXXXXXXXXOOOOOOOOOOOOOOOO                OOOOOOOOOOOOOOOOOOOOOXXXXXXXXXXX     ",
"     XXXXXXXXXXXOOOOOOOOOOOOOOOO                OOOOOOOOOOOOOOOOOOOOOXXXXXXXXXXX     ",
"     XXXXXXXXXXXOOOOOOOOOOOOOOOO                OOOOOOOOOOOOOOOOOOOOOXXXXXXXXXXX     ",
"     XXXXXXXXXXXOOOOOOOOOOOOOOOO                OOOOOOOOOOOOOOOOOOOOOXXXXXXXXXXX     ",
".....     XXXXXXXXXXXXXXXXXXXXXXXXXXXXXXXXXXXXXXXXXXXXXXXXXXXXXXXXXXXXXXXX      .....",
".....     XXXXXXXXXXXXXXXXXXXXXXXXXXXXXXXXXXXXXXXXXXXXXXXXXXXXXXXXXXXXXXXX      .....",
".....     XXXXXXXXXXXXXXXXXXXXXXXXXXXXXXXXXXXXXXXXXXXXXXXXXXXXXXXXXXXXXXXX      .....",
".....     XXXXXXXXXXXXXXXXXXXXXXXXXXXXXXXXXXXXXXXXXXXXXXXXXXXXXXXXXXXXXXXX      .....",
".....     XXXXXXXXXXXXXXXXXXXXXXXXXXXXXXXXXXXXXXXXXXXXXXXXXXXXXXXXXXXXXXXX      .....",
".....     XXXXXXXXXXXXXXXXXXXXXXXXXXXXXXXXXXXXXXXXXXXXXXXXXXXXXXXXXXXXXXXX      .....",
"+++++.....                                                                ......+++++",
"+++++.....                                                                ......+++++",
"+++++.....                                                                ......+++++",
"+++++.....                                                                ......+++++",
"+++++.....                                                                ......+++++",
"+++++++++++++++++++++++++++++++++++++++++++++++++++++++++++++++++++++++++++++++++++++"
};
