/* XPM */
static char *ade6a81561984bd6ba6169938a09f1e86WREZjjwJSOURLZU[] = {
/* columns rows colors chars-per-pixel */
"85 86 7 1 ",
"  c gray17",
". c #484748",
"X c #5B88F6",
"o c gray67",
"O c #CECECE",
"+ c #E6E6E6",
"@ c gray97",
/* pixels */
"XXXXXXXXXXXXXXXXXXXXXXXXXXXXXXXXXXXXXXXXXXXXXXXXXXXXXXXXXXXXXXXXXXXXXXXXXXXXXXXXXXXXX",
"XXXXXXXXXX......                     ...........                     ......XXXXXXXXXX",
"XXXXXXXXXX......                     ...........                     ......XXXXXXXXXX",
"XXXXXXXXXX......                     ...........                     ......XXXXXXXXXX",
"XXXXXXXXXX......                     ...........                     ......XXXXXXXXXX",
"XXXXXXXXXX......                     ...........                     ......XXXXXXXXXX",
"XXXXX.....      @@@@@++++++++++++++++           @@@@@++++++++++++++++      .....XXXXX",
"XXXXX.....      @@@@@++++++++++++++++           @@@@@++++++++++++++++      .....XXXXX",
"XXXXX.....      @@@@@++++++++++++++++           @@@@@++++++++++++++++      .....XXXXX",
"XXXXX.....      @@@@@++++++++++++++++           @@@@@++++++++++++++++      .....XXXXX",
"XXXXX.....      @@@@@++++++++++++++++           @@@@@++++++++++++++++      .....XXXXX",
"XXXXX     ++++++OOOOOOOOOOOOOOOOOOOOO+++++++++++OOOOOOOOOOOOOOOOOOOOOoooooo     XXXXX",
"XXXXX     ++++++OOOOOOOOOOOOOOOOOOOOO+++++++++++OOOOOOOOOOOOOOOOOOOOOoooooo     XXXXX",
"XXXXX     ++++++OOOOOOOOOOOOOOOOOOOOO+++++++++++OOOOOOOOOOOOOOOOOOOOOoooooo     XXXXX",
"XXXXX     ++++++OOOOOOOOOOOOOOOOOOOOO+++++++++++OOOOOOOOOOOOOOOOOOOOOoooooo     XXXXX",
"XXXXX     ++++++OOOOOOOOOOOOOOOOOOOOO+++++++++++OOOOOOOOOOOOOOOOOOOOOoooooo     XXXXX",
"XXXXX     ++++++OOOOOOOOOOOOOOOOOOOOO+++++++++++OOOOOOOOOOOOOOOOOOOOOoooooo     XXXXX",
".....     ++++++OOOOOOOOOOOOOOOOOOOOOOOOOOOOOOOOOOOOOOOOOOOOOOOOOOOOOoooooo     .....",
".....     ++++++OOOOOOOOOOOOOOOOOOOOOOOOOOOOOOOOOOOOOOOOOOOOOOOOOOOOOoooooo     .....",
".....     ++++++OOOOOOOOOOOOOOOOOOOOOOOOOOOOOOOOOOOOOOOOOOOOOOOOOOOOOoooooo     .....",
".....     ++++++OOOOOOOOOOOOOOOOOOOOOOOOOOOOOOOOOOOOOOOOOOOOOOOOOOOOOoooooo     .....",
".....     ++++++OOOOOOOOOOOOOOOOOOOOOOOOOOOOOOOOOOOOOOOOOOOOOOOOOOOOOoooooo     .....",
"     +++++OOOOOOOOOOOOOOOOOOOOOOOOOOOOOOOOOOOOOOOOOOOOOOOOOOOOOOOOOOOOOOOOOooooo     ",
"     +++++OOOOOOOOOOOOOOOOOOOOOOOOOOOOOOOOOOOOOOOOOOOOOOOOOOOOOOOOOOOOOOOOOooooo     ",
"     +++++OOOOOOOOOOOOOOOOOOOOOOOOOOOOOOOOOOOOOOOOOOOOOOOOOOOOOOOOOOOOOOOOOooooo     ",
"     +++++OOOOOOOOOOOOOOOOOOOOOOOOOOOOOOOOOOOOOOOOOOOOOOOOOOOOOOOOOOOOOOOOOooooo     ",
"     +++++OOOOOOOOOOOOOOOOOOOOOOOOOOOOOOOOOOOOOOOOOOOOOOOOOOOOOOOOOOOOOOOOOooooo     ",
"     +++++OOOOOOOOOOOOOOOOOOOOOOOOOOOOOOOOOOOOOOOOOOOOOOOOOOOOOOOOOOOOOOOOOooooo     ",
"     +++++OOOOOOOOOOOOOOOOOOOOOOOOOOOOOOOOOOOOOOOOOOOOOOOOOOOOOOOOOOOOOOOOOooooo     ",
"     +++++OOOOOOOOOOOOOOOOOOOOOOOOOOOOOOOOOOOOOOOOOOOOOOOOOOOOOOOOOOOOOOOOOooooo     ",
"     +++++OOOOOOOOOOOOOOOOOOOOOOOOOOOOOOOOOOOOOOOOOOOOOOOOOOOOOOOOOOOOOOOOOooooo     ",
"     +++++OOOOOOOOOOOOOOOOOOOOOOOOOOOOOOOOOOOOOOOOOOOOOOOOOOOOOOOOOOOOOOOOOooooo     ",
"     +++++OOOOOOOOOOOOOOOOOOOOOOOOOOOOOOOOOOOOOOOOOOOOOOOOOOOOOOOOOOOOOOOOOooooo     ",
"     +++++OOOOOOOOOOOOOOOOOOOOOO     OOOOOOOOOOO     OOOOOOOOOOOOOOOOOOOOOOooooo     ",
"     +++++OOOOOOOOOOOOOOOOOOOOOO     OOOOOOOOOOO     OOOOOOOOOOOOOOOOOOOOOOooooo     ",
"     +++++OOOOOOOOOOOOOOOOOOOOOO     OOOOOOOOOOO     OOOOOOOOOOOOOOOOOOOOOOooooo     ",
"     +++++OOOOOOOOOOOOOOOOOOOOOO     OOOOOOOOOOO     OOOOOOOOOOOOOOOOOOOOOOooooo     ",
"     +++++OOOOOOOOOOOOOOOOOOOOOO     OOOOOOOOOOO     OOOOOOOOOOOOOOOOOOOOOOooooo     ",
"     +++++OOOOOOOOOOOOOOOOOOOOOO     OOOOOOOOOOO     OOOOOOOOOOOOOOOOOOOOOOooooo     ",
"     +++++OOOOOOOOOOOOOOOOOOOOOO     OOOOOOOOOOO     OOOOOOOOOOOOOOOOOOOOOOooooo     ",
"     +++++OOOOOOOOOOOOOOOOOOOOOO     OOOOOOOOOOO     OOOOOOOOOOOOOOOOOOOOOOooooo     ",
"     +++++OOOOOOOOOOOOOOOOOOOOOO     OOOOOOOOOOO     OOOOOOOOOOOOOOOOOOOOOOooooo     ",
"     +++++OOOOOOOOOOOOOOOOOOOOOO     OOOOOOOOOOO     OOOOOOOOOOOOOOOOOOOOOOooooo     ",
"     +++++OOOOOOOOOOOOOOOOOOOOOO     OOOOOOOOOOO     OOOOOOOOOOOOOOOOOOOOOOooooo     ",
"     +++++OOOOOOOOOOOOOOOOOOOOOO     OOOOOOOOOOO     OOOOOOOOOOOOOOOOOOOOOOooooo     ",
"     +++++OOOOOOOOOOOOOOOOOOOOOO     OOOOOOOOOOO     OOOOOOOOOOOOOOOOOOOOOOooooo     ",
"     +++++OOOOOOOOOOOOOOOOOOOOOO     OOOOOOOOOOO     OOOOOOOOOOOOOOOOOOOOOOooooo     ",
"     +++++OOOOOOOOOOOOOOOOOOOOOO     OOOOOOOOOOO     OOOOOOOOOOOOOOOOOOOOOOooooo     ",
"     +++++OOOOOOOOOOOOOOOOOOOOOO     OOOOOOOOOOO     OOOOOOOOOOOOOOOOOOOOOOooooo     ",
"     +++++OOOOOOOOOOOOOOOOOOOOOOOOOOOOOOOOOOOOOOOOOOOOOOOOOOOOOOOOOOOOOOOOOooooo     ",
"     +++++OOOOOOOOOOOOOOOOOOOOOOOOOOOOOOOOOOOOOOOOOOOOOOOOOOOOOOOOOOOOOOOOOooooo     ",
"     +++++OOOOOOOOOOOOOOOOOOOOOOOOOOOOOOOOOOOOOOOOOOOOOOOOOOOOOOOOOOOOOOOOOooooo     ",
"     +++++OOOOOOOOOOOOOOOOOOOOOOOOOOOOOOOOOOOOOOOOOOOOOOOOOOOOOOOOOOOOOOOOOooooo     ",
"     +++++OOOOOOOOOOOOOOOOOOOOOOOOOOOOOOOOOOOOOOOOOOOOOOOOOOOOOOOOOOOOOOOOOooooo     ",
"     +++++OOOOOOOOOOOOOOOO      OOOOOOOOOOOOOOOOOOOOO     OOOOOOOOOOOOOOOOOooooo     ",
"     +++++OOOOOOOOOOOOOOOO      OOOOOOOOOOOOOOOOOOOOO     OOOOOOOOOOOOOOOOOooooo     ",
"     +++++OOOOOOOOOOOOOOOO      OOOOOOOOOOOOOOOOOOOOO     OOOOOOOOOOOOOOOOOooooo     ",
"     +++++OOOOOOOOOOOOOOOO      OOOOOOOOOOOOOOOOOOOOO     OOOOOOOOOOOOOOOOOooooo     ",
"     +++++OOOOOOOOOOOOOOOO      OOOOOOOOOOOOOOOOOOOOO     OOOOOOOOOOOOOOOOOooooo     ",
"     OOOOO      +++++OOOOOOOOOOO                     OOOOOOOOOOOOOOOO      ooooo     ",
"     OOOOO      +++++OOOOOOOOOOO                     OOOOOOOOOOOOOOOO      ooooo     ",
"     OOOOO      +++++OOOOOOOOOOO                     OOOOOOOOOOOOOOOO      ooooo     ",
"     OOOOO      +++++OOOOOOOOOOO                     OOOOOOOOOOOOOOOO      ooooo     ",
"     OOOOO      +++++OOOOOOOOOOO                     OOOOOOOOOOOOOOOO      ooooo     ",
"     OOOOO      +++++OOOOOOOOOOO                     OOOOOOOOOOOOOOOO      ooooo     ",
".....     ++++++OOOOOOOOOOOOOOOOOOOOOOOOOOOOOOOOOOOOOOOOOOOOOOOOOOOOO++++++     .....",
".....     ++++++OOOOOOOOOOOOOOOOOOOOOOOOOOOOOOOOOOOOOOOOOOOOOOOOOOOOO++++++     .....",
".....     ++++++OOOOOOOOOOOOOOOOOOOOOOOOOOOOOOOOOOOOOOOOOOOOOOOOOOOOO++++++     .....",
".....     ++++++OOOOOOOOOOOOOOOOOOOOOOOOOOOOOOOOOOOOOOOOOOOOOOOOOOOOO++++++     .....",
".....     ++++++OOOOOOOOOOOOOOOOOOOOOOOOOOOOOOOOOOOOOOOOOOOOOOOOOOOOO++++++     .....",
"XXXXX     ++++++OOOOOOOOOOOOOOOOoooooooooooooooooooooOOOOOOOOOOOOOOOOoooooo     XXXXX",
"XXXXX     ++++++OOOOOOOOOOOOOOOOoooooooooooooooooooooOOOOOOOOOOOOOOOOoooooo     XXXXX",
"XXXXX     ++++++OOOOOOOOOOOOOOOOoooooooooooooooooooooOOOOOOOOOOOOOOOOoooooo     XXXXX",
"XXXXX     ++++++OOOOOOOOOOOOOOOOoooooooooooooooooooooOOOOOOOOOOOOOOOOoooooo     XXXXX",
"XXXXX     ++++++OOOOOOOOOOOOOOOOoooooooooooooooooooooOOOOOOOOOOOOOOOOoooooo     XXXXX",
"XXXXX     ++++++OOOOOOOOOOOOOOOOoooooooooooooooooooooOOOOOOOOOOOOOOOOoooooo     XXXXX",
"XXXXX.....      OOOOOooooooooooo                     OOOOOooooooooooo      .....XXXXX",
"XXXXX.....      OOOOOooooooooooo                     OOOOOooooooooooo      .....XXXXX",
"XXXXX.....      OOOOOooooooooooo                     OOOOOooooooooooo      .....XXXXX",
"XXXXX.....      OOOOOooooooooooo                     OOOOOooooooooooo      .....XXXXX",
"XXXXX.....      OOOOOooooooooooo                     OOOOOooooooooooo      .....XXXXX",
"XXXXXXXXXX......                .....XXXXXXXXXXX.....                ......XXXXXXXXXX",
"XXXXXXXXXX......                .....XXXXXXXXXXX.....                ......XXXXXXXXXX",
"XXXXXXXXXX......                .....XXXXXXXXXXX.....                ......XXXXXXXXXX",
"XXXXXXXXXX......                .....XXXXXXXXXXX.....                ......XXXXXXXXXX",
"XXXXXXXXXX......                .....XXXXXXXXXXX.....                ......XXXXXXXXXX"
};
