/* XPM */
static char *_7d9a10203874dd5e4cc2b3d158f059cNE6aI1AGrVchJAOG[] = {
/* columns rows colors chars-per-pixel */
"84 85 7 1 ",
"  c gray17",
". c #38384D",
"X c #484748",
"o c #4E4E64",
"O c #746D7C",
"+ c #5B88F6",
"@ c #948E95",
/* pixels */
"+++++++++XXXXXX                     XXXXXXXXXXX                     XXXXXX++++++++++",
"+++++++++XXXXXX                     XXXXXXXXXXX                     XXXXXX++++++++++",
"+++++++++XXXXXX                     XXXXXXXXXXX                     XXXXXX++++++++++",
"+++++++++XXXXXX                     XXXXXXXXXXX                     XXXXXX++++++++++",
"+++++++++XXXXXX                     XXXXXXXXXXX                     XXXXXX++++++++++",
"++++XXXXX      @@@@@OOOOOOOOOOOOOOOO           @@@@@OOOOOOOOOOOOOOOO      XXXXX+++++",
"++++XXXXX      @@@@@OOOOOOOOOOOOOOOO           @@@@@OOOOOOOOOOOOOOOO      XXXXX+++++",
"++++XXXXX      @@@@@OOOOOOOOOOOOOOOO           @@@@@OOOOOOOOOOOOOOOO      XXXXX+++++",
"++++XXXXX      @@@@@OOOOOOOOOOOOOOOO           @@@@@OOOOOOOOOOOOOOOO      XXXXX+++++",
"++++XXXXX      @@@@@OOOOOOOOOOOOOOOO           @@@@@OOOOOOOOOOOOOOOO      XXXXX+++++",
"++++     OOOOOOoooooooooooooooooooooOOOOOOOOOOOooooooooooooooooooooo......     +++++",
"++++     OOOOOOoooooooooooooooooooooOOOOOOOOOOOooooooooooooooooooooo......     +++++",
"++++     OOOOOOoooooooooooooooooooooOOOOOOOOOOOooooooooooooooooooooo......     +++++",
"++++     OOOOOOoooooooooooooooooooooOOOOOOOOOOOooooooooooooooooooooo......     +++++",
"++++     OOOOOOoooooooooooooooooooooOOOOOOOOOOOooooooooooooooooooooo......     +++++",
"++++     OOOOOOoooooooooooooooooooooOOOOOOOOOOOooooooooooooooooooooo......     +++++",
"XXXX     OOOOOOooooooooooooooooooooooooooooooooooooooooooooooooooooo......     XXXXX",
"XXXX     OOOOOOooooooooooooooooooooooooooooooooooooooooooooooooooooo......     XXXXX",
"XXXX     OOOOOOooooooooooooooooooooooooooooooooooooooooooooooooooooo......     XXXXX",
"XXXX     OOOOOOooooooooooooooooooooooooooooooooooooooooooooooooooooo......     XXXXX",
"XXXX     OOOOOOooooooooooooooooooooooooooooooooooooooooooooooooooooo......     XXXXX",
"    OOOOOooooooooooooooooooooooooooooooooooooooooooooooooooooooooooooooooo.....     ",
"    OOOOOooooooooooooooooooooooooooooooooooooooooooooooooooooooooooooooooo.....     ",
"    OOOOOooooooooooooooooooooooooooooooooooooooooooooooooooooooooooooooooo.....     ",
"    OOOOOooooooooooooooooooooooooooooooooooooooooooooooooooooooooooooooooo.....     ",
"    OOOOOooooooooooooooooooooooooooooooooooooooooooooooooooooooooooooooooo.....     ",
"    OOOOOooooooooooooooooooooooooooooooooooooooooooooooooooooooooooooooooo.....     ",
"    OOOOOooooooooooooooooooooooooooooooooooooooooooooooooooooooooooooooooo.....     ",
"    OOOOOooooooooooooooooooooooooooooooooooooooooooooooooooooooooooooooooo.....     ",
"    OOOOOooooooooooooooooooooooooooooooooooooooooooooooooooooooooooooooooo.....     ",
"    OOOOOooooooooooooooooooooooooooooooooooooooooooooooooooooooooooooooooo.....     ",
"    OOOOOooooooooooooooooooooooooooooooooooooooooooooooooooooooooooooooooo.....     ",
"    OOOOOoooooooooooooooo      ooooooooooooooooooooo     ooooooooooooooooo.....     ",
"    OOOOOoooooooooooooooo      ooooooooooooooooooooo     ooooooooooooooooo.....     ",
"    OOOOOoooooooooooooooo      ooooooooooooooooooooo     ooooooooooooooooo.....     ",
"    OOOOOoooooooooooooooo      ooooooooooooooooooooo     ooooooooooooooooo.....     ",
"    OOOOOoooooooooooooooo      ooooooooooooooooooooo     ooooooooooooooooo.....     ",
"    OOOOOoooooooooooooooo           ooooooooooo          ooooooooooooooooo.....     ",
"    OOOOOoooooooooooooooo           ooooooooooo          ooooooooooooooooo.....     ",
"    OOOOOoooooooooooooooo           ooooooooooo          ooooooooooooooooo.....     ",
"    OOOOOoooooooooooooooo           ooooooooooo          ooooooooooooooooo.....     ",
"    OOOOOoooooooooooooooo           ooooooooooo          ooooooooooooooooo.....     ",
"    OOOOOoooooooooooooooooooooo     ooooooooooo     oooooooooooooooooooooo.....     ",
"    OOOOOoooooooooooooooooooooo     ooooooooooo     oooooooooooooooooooooo.....     ",
"    OOOOOoooooooooooooooooooooo     ooooooooooo     oooooooooooooooooooooo.....     ",
"    OOOOOoooooooooooooooooooooo     ooooooooooo     oooooooooooooooooooooo.....     ",
"    OOOOOoooooooooooooooooooooo     ooooooooooo     oooooooooooooooooooooo.....     ",
"    OOOOOoooooooooooooooooooooo     ooooooooooo     oooooooooooooooooooooo.....     ",
"    OOOOOooooooooooooooooooooooooooooooooooooooooooooooooooooooooooooooooo.....     ",
"    OOOOOooooooooooooooooooooooooooooooooooooooooooooooooooooooooooooooooo.....     ",
"    OOOOOooooooooooooooooooooooooooooooooooooooooooooooooooooooooooooooooo.....     ",
"    OOOOOooooooooooooooooooooooooooooooooooooooooooooooooooooooooooooooooo.....     ",
"    OOOOOooooooooooooooooooooooooooooooooooooooooooooooooooooooooooooooooo.....     ",
"    OOOOOoooooooooooooooooooooo                     oooooooooooooooooooooo.....     ",
"    OOOOOoooooooooooooooooooooo                     oooooooooooooooooooooo.....     ",
"    OOOOOoooooooooooooooooooooo                     oooooooooooooooooooooo.....     ",
"    OOOOOoooooooooooooooooooooo                     oooooooooooooooooooooo.....     ",
"    OOOOOoooooooooooooooooooooo                     oooooooooooooooooooooo.....     ",
"    OOOOOoooooooooooooooooooooo                     oooooooooooooooooooooo.....     ",
"    .....      OOOOOooooo      ooooooooooooooooooooo     ooooooOOOOO      .....     ",
"    .....      OOOOOooooo      ooooooooooooooooooooo     ooooooOOOOO      .....     ",
"    .....      OOOOOooooo      ooooooooooooooooooooo     ooooooOOOOO      .....     ",
"    .....      OOOOOooooo      ooooooooooooooooooooo     ooooooOOOOO      .....     ",
"    .....      OOOOOooooo      ooooooooooooooooooooo     ooooooOOOOO      .....     ",
"XXXX     OOOOOOoooooooooooooooooooooooooooooooooooooooooooooooooooooOOOOOO     XXXXX",
"XXXX     OOOOOOoooooooooooooooooooooooooooooooooooooooooooooooooooooOOOOOO     XXXXX",
"XXXX     OOOOOOoooooooooooooooooooooooooooooooooooooooooooooooooooooOOOOOO     XXXXX",
"XXXX     OOOOOOoooooooooooooooooooooooooooooooooooooooooooooooooooooOOOOOO     XXXXX",
"XXXX     OOOOOOoooooooooooooooooooooooooooooooooooooooooooooooooooooOOOOOO     XXXXX",
"++++     OOOOOOoooooooooooooooo.....................oooooooooooooooo......     +++++",
"++++     OOOOOOoooooooooooooooo.....................oooooooooooooooo......     +++++",
"++++     OOOOOOoooooooooooooooo.....................oooooooooooooooo......     +++++",
"++++     OOOOOOoooooooooooooooo.....................oooooooooooooooo......     +++++",
"++++     OOOOOOoooooooooooooooo.....................oooooooooooooooo......     +++++",
"++++     OOOOOOoooooooooooooooo.....................oooooooooooooooo......     +++++",
"++++XXXXX      ooooo...........                     ooooo...........      XXXXX+++++",
"++++XXXXX      ooooo...........                     ooooo...........      XXXXX+++++",
"++++XXXXX      ooooo...........                     ooooo...........      XXXXX+++++",
"++++XXXXX      ooooo...........                     ooooo...........      XXXXX+++++",
"++++XXXXX      ooooo...........                     ooooo...........      XXXXX+++++",
"+++++++++XXXXXX                XXXXX+++++++++++XXXXX                XXXXXX++++++++++",
"+++++++++XXXXXX                XXXXX+++++++++++XXXXX                XXXXXX++++++++++",
"+++++++++XXXXXX                XXXXX+++++++++++XXXXX                XXXXXX++++++++++",
"+++++++++XXXXXX                XXXXX+++++++++++XXXXX                XXXXXX++++++++++",
"+++++++++XXXXXX                XXXXX+++++++++++XXXXX                XXXXXX++++++++++"
};
