/* XPM */
static char *_072a502b56c45f1abceb3b44b4415541lJK3aP4QFm8JNcj[] = {
/* columns rows colors chars-per-pixel */
"85 86 6 1 ",
"  c gray17",
". c #484748",
"X c gray57",
"o c #B4B4B4",
"O c #CECECE",
"+ c gray99",
/* pixels */
".....                                                                           .....",
".....                                                                           .....",
".....                                                                           .....",
".....                                                                           .....",
".....                                                                           .....",
"     ++++++OOOOOOOOOOOOOOOOOOOOOOOOOOOOOOOOOOOOOOOOOOOOOOOOOOOOOOOOOOOOOOOOooooo     ",
"     ++++++OOOOOOOOOOOOOOOOOOOOOOOOOOOOOOOOOOOOOOOOOOOOOOOOOOOOOOOOOOOOOOOOooooo     ",
"     ++++++OOOOOOOOOOOOOOOOOOOOOOOOOOOOOOOOOOOOOOOOOOOOOOOOOOOOOOOOOOOOOOOOooooo     ",
"     ++++++OOOOOOOOOOOOOOOOOOOOOOOOOOOOOOOOOOOOOOOOOOOOOOOOOOOOOOOOOOOOOOOOooooo     ",
"     ++++++OOOOOOOOOOOOOOOOOOOOOOOOOOOOOOOOOOOOOOOOOOOOOOOOOOOOOOOOOOOOOOOOooooo     ",
"     ++++++OOOOOOOOOOOOOOOOOOOOOOOOOOOOOOOOOOOOOOOOOOOOOOOOOOOOOOOOOOOOOOOOooooo     ",
"     OOOOOO+++++OOOOOOOOOOOOOOOOOOOOOOOOOOOOOOOOOOOOOOOOOOOOOOOOOOOOOooooooXXXXX     ",
"     OOOOOO+++++OOOOOOOOOOOOOOOOOOOOOOOOOOOOOOOOOOOOOOOOOOOOOOOOOOOOOooooooXXXXX     ",
"     OOOOOO+++++OOOOOOOOOOOOOOOOOOOOOOOOOOOOOOOOOOOOOOOOOOOOOOOOOOOOOooooooXXXXX     ",
"     OOOOOO+++++OOOOOOOOOOOOOOOOOOOOOOOOOOOOOOOOOOOOOOOOOOOOOOOOOOOOOooooooXXXXX     ",
"     OOOOOO+++++OOOOOOOOOOOOOOOOOOOOOOOOOOOOOOOOOOOOOOOOOOOOOOOOOOOOOooooooXXXXX     ",
"     OOOOOOOOOOO+++++OOOOOOOOOOOOOOOOOOOOOOOOOOOOOOOOOOOOOOOOOOOoooooXXXXXXXXXXX     ",
"     OOOOOOOOOOO+++++OOOOOOOOOOOOOOOOOOOOOOOOOOOOOOOOOOOOOOOOOOOoooooXXXXXXXXXXX     ",
"     OOOOOOOOOOO+++++OOOOOOOOOOOOOOOOOOOOOOOOOOOOOOOOOOOOOOOOOOOoooooXXXXXXXXXXX     ",
"     OOOOOOOOOOO+++++OOOOOOOOOOOOOOOOOOOOOOOOOOOOOOOOOOOOOOOOOOOoooooXXXXXXXXXXX     ",
"     OOOOOOOOOOO+++++OOOOOOOOOOOOOOOOOOOOOOOOOOOOOOOOOOOOOOOOOOOoooooXXXXXXXXXXX     ",
"     OOOOOOOOOOOOOOOOoooooooooooooooooooooooooooooooooooooooooooXXXXXXXXXXXXXXXX     ",
"     OOOOOOOOOOOOOOOOoooooooooooooooooooooooooooooooooooooooooooXXXXXXXXXXXXXXXX     ",
"     OOOOOOOOOOOOOOOOoooooooooooooooooooooooooooooooooooooooooooXXXXXXXXXXXXXXXX     ",
"     OOOOOOOOOOOOOOOOoooooooooooooooooooooooooooooooooooooooooooXXXXXXXXXXXXXXXX     ",
"     OOOOOOOOOOOOOOOOoooooooooooooooooooooooooooooooooooooooooooXXXXXXXXXXXXXXXX     ",
"     OOOOOOOOOOOOOOOOoooooooooooooooooooooooooooooooooooooooooooXXXXXXXXXXXXXXXX     ",
"     OOOOOOOOOOOOOOOOoooooooooooooooooooooooooooooooooooooooooooXXXXXXXXXXXXXXXX     ",
"     OOOOOOOOOOOOOOOOoooooooooooooooooooooooooooooooooooooooooooXXXXXXXXXXXXXXXX     ",
"     OOOOOOOOOOOOOOOOoooooooooooooooooooooooooooooooooooooooooooXXXXXXXXXXXXXXXX     ",
"     OOOOOOOOOOOOOOOOoooooooooooooooooooooooooooooooooooooooooooXXXXXXXXXXXXXXXX     ",
"     OOOOOOOOOOOOOOOOoooooooooooooooooooooooooooooooooooooooooooXXXXXXXXXXXXXXXX     ",
"     OOOOOOOOOOOOOOOOoooooooooooooooooooooooooooooooooooooooooooXXXXXXXXXXXXXXXX     ",
"     OOOOOOOOOOOOOOOOoooooooooooooooooooooooooooooooooooooooooooXXXXXXXXXXXXXXXX     ",
"     OOOOOOOOOOOOOOOOoooooooooooooooooooooooooooooooooooooooooooXXXXXXXXXXXXXXXX     ",
"     OOOOOOOOOOOOOOOOoooooooooooooooooooooooooooooooooooooooooooXXXXXXXXXXXXXXXX     ",
"     OOOOOOOOOOOOOOOOoooooooooooooooooooooooooooooooooooooooooooXXXXXXXXXXXXXXXX     ",
"     OOOOOOOOOOOOOOOOoooooooooooooooooooooooooooooooooooooooooooXXXXXXXXXXXXXXXX     ",
"     OOOOOOOOOOOOOOOOoooooooooooooooooooooooooooooooooooooooooooXXXXXXXXXXXXXXXX     ",
"     OOOOOOOOOOOOOOOOoooooooooooooooooooooooooooooooooooooooooooXXXXXXXXXXXXXXXX     ",
"     OOOOOOOOOOOOOOOOoooooooooooooooooooooooooooooooooooooooooooXXXXXXXXXXXXXXXX     ",
"     OOOOOOOOOOOOOOOOoooooooooooooooooooooooooooooooooooooooooooXXXXXXXXXXXXXXXX     ",
"     OOOOOOOOOOOOOOOOoooooooooooooooooooooooooooooooooooooooooooXXXXXXXXXXXXXXXX     ",
"     OOOOOOOOOOOOOOOOoooooooooooooooooooooooooooooooooooooooooooXXXXXXXXXXXXXXXX     ",
"     OOOOOOOOOOOOOOOOoooooooooooooooooooooooooooooooooooooooooooXXXXXXXXXXXXXXXX     ",
"     OOOOOOOOOOOOOOOOoooooooooooooooooooooooooooooooooooooooooooXXXXXXXXXXXXXXXX     ",
"     OOOOOOOOOOOOOOOOoooooooooooooooooooooooooooooooooooooooooooXXXXXXXXXXXXXXXX     ",
"     OOOOOOOOOOOOOOOOoooooooooooooooooooooooooooooooooooooooooooXXXXXXXXXXXXXXXX     ",
"     OOOOOOOOOOOOOOOOoooooooooooooooooooooooooooooooooooooooooooXXXXXXXXXXXXXXXX     ",
"     OOOOOOOOOOOOOOOOoooooooooooooooooooooooooooooooooooooooooooXXXXXXXXXXXXXXXX     ",
"     OOOOOOOOOOOOOOOOoooooooooooooooooooooooooooooooooooooooooooXXXXXXXXXXXXXXXX     ",
"     OOOOOOOOOOOOOOOOoooooooooooooooooooooooooooooooooooooooooooXXXXXXXXXXXXXXXX     ",
"     OOOOOOOOOOOOOOOOoooooooooooooooooooooooooooooooooooooooooooXXXXXXXXXXXXXXXX     ",
"     OOOOOOOOOOOOOOOOoooooooooooooooooooooooooooooooooooooooooooXXXXXXXXXXXXXXXX     ",
"     OOOOOOOOOOOOOOOOoooooooooooooooooooooooooooooooooooooooooooXXXXXXXXXXXXXXXX     ",
"     OOOOOOOOOOOOOOOOoooooooooooooooooooooooooooooooooooooooooooXXXXXXXXXXXXXXXX     ",
"     OOOOOOOOOOOOOOOOoooooooooooooooooooooooooooooooooooooooooooXXXXXXXXXXXXXXXX     ",
"     OOOOOOOOOOOOOOOOoooooooooooooooooooooooooooooooooooooooooooXXXXXXXXXXXXXXXX     ",
"     OOOOOOOOOOOOOOOOoooooooooooooooooooooooooooooooooooooooooooXXXXXXXXXXXXXXXX     ",
"     OOOOOOOOOOOOOOOOoooooooooooooooooooooooooooooooooooooooooooXXXXXXXXXXXXXXXX     ",
"     OOOOOOOOOOOOOOOOoooooooooooooooooooooooooooooooooooooooooooXXXXXXXXXXXXXXXX     ",
"     OOOOOOOOOOOOOOOOoooooooooooooooooooooooooooooooooooooooooooXXXXXXXXXXXXXXXX     ",
"     OOOOOOOOOOOOOOOOoooooooooooooooooooooooooooooooooooooooooooXXXXXXXXXXXXXXXX     ",
"     OOOOOOOOOOOOOOOOoooooooooooooooooooooooooooooooooooooooooooXXXXXXXXXXXXXXXX     ",
"     OOOOOOOOOOOoooooXXXXXXXXXXXXXXXXXXXXXXXXXXXXXXXXXXXXXXXXXXX.....XXXXXXXXXXX     ",
"     OOOOOOOOOOOoooooXXXXXXXXXXXXXXXXXXXXXXXXXXXXXXXXXXXXXXXXXXX.....XXXXXXXXXXX     ",
"     OOOOOOOOOOOoooooXXXXXXXXXXXXXXXXXXXXXXXXXXXXXXXXXXXXXXXXXXX.....XXXXXXXXXXX     ",
"     OOOOOOOOOOOoooooXXXXXXXXXXXXXXXXXXXXXXXXXXXXXXXXXXXXXXXXXXX.....XXXXXXXXXXX     ",
"     OOOOOOOOOOOoooooXXXXXXXXXXXXXXXXXXXXXXXXXXXXXXXXXXXXXXXXXXX.....XXXXXXXXXXX     ",
"     OOOOOOoooooXXXXXXXXXXXXXXXXXXXXXXXXXXXXXXXXXXXXXXXXXXXXXXXXXXXXX......XXXXX     ",
"     OOOOOOoooooXXXXXXXXXXXXXXXXXXXXXXXXXXXXXXXXXXXXXXXXXXXXXXXXXXXXX......XXXXX     ",
"     OOOOOOoooooXXXXXXXXXXXXXXXXXXXXXXXXXXXXXXXXXXXXXXXXXXXXXXXXXXXXX......XXXXX     ",
"     OOOOOOoooooXXXXXXXXXXXXXXXXXXXXXXXXXXXXXXXXXXXXXXXXXXXXXXXXXXXXX......XXXXX     ",
"     OOOOOOoooooXXXXXXXXXXXXXXXXXXXXXXXXXXXXXXXXXXXXXXXXXXXXXXXXXXXXX......XXXXX     ",
"     OOOOOOoooooXXXXXXXXXXXXXXXXXXXXXXXXXXXXXXXXXXXXXXXXXXXXXXXXXXXXX......XXXXX     ",
"     ooooooXXXXXXXXXXXXXXXXXXXXXXXXXXXXXXXXXXXXXXXXXXXXXXXXXXXXXXXXXXXXXXXX.....     ",
"     ooooooXXXXXXXXXXXXXXXXXXXXXXXXXXXXXXXXXXXXXXXXXXXXXXXXXXXXXXXXXXXXXXXX.....     ",
"     ooooooXXXXXXXXXXXXXXXXXXXXXXXXXXXXXXXXXXXXXXXXXXXXXXXXXXXXXXXXXXXXXXXX.....     ",
"     ooooooXXXXXXXXXXXXXXXXXXXXXXXXXXXXXXXXXXXXXXXXXXXXXXXXXXXXXXXXXXXXXXXX.....     ",
"     ooooooXXXXXXXXXXXXXXXXXXXXXXXXXXXXXXXXXXXXXXXXXXXXXXXXXXXXXXXXXXXXXXXX.....     ",
".....                                                                           .....",
".....                                                                           .....",
".....                                                                           .....",
".....                                                                           .....",
".....                                                                           .....",
".....                                                                           ....."
};
